<svg id="svg" version="1.1" xmlns="http://www.w3.org/2000/svg" xmlns:xlink="http://www.w3.org/1999/xlink" width="400" height="400" viewBox="0, 0, 400,400"><g id="svgg"><path id="path0" d="M117.400 139.566 C 111.696 140.590,109.925 141.066,108.274 142.020 C 107.875 142.251,106.107 142.971,104.345 143.620 C 102.584 144.270,100.358 145.341,99.399 146.001 C 98.440 146.660,97.416 147.200,97.123 147.200 C 96.829 147.200,95.602 147.868,94.395 148.685 C 93.188 149.502,91.544 150.537,90.741 150.985 C 85.849 153.718,81.692 157.198,77.754 161.858 C 73.380 167.032,72.511 168.173,71.358 170.248 C 70.762 171.322,69.853 172.757,69.337 173.438 C 68.822 174.119,68.400 174.886,68.400 175.144 C 68.400 175.402,67.691 177.005,66.824 178.706 C 65.957 180.408,65.062 182.610,64.835 183.600 C 64.608 184.590,63.832 187.020,63.111 189.000 L 61.800 192.600 61.800 246.600 L 61.800 300.600 63.300 304.867 C 64.125 307.214,64.800 309.484,64.800 309.911 C 64.800 310.338,65.346 311.748,66.014 313.044 C 66.682 314.340,67.673 316.470,68.218 317.778 C 68.762 319.086,69.536 320.526,69.937 320.978 C 70.339 321.430,71.180 322.700,71.808 323.800 C 73.215 326.269,75.367 329.224,77.143 331.126 C 77.881 331.918,78.932 333.151,79.478 333.867 C 80.024 334.583,80.770 335.265,81.136 335.382 C 81.501 335.499,82.160 336.137,82.600 336.800 C 83.040 337.463,83.711 338.104,84.091 338.226 C 84.471 338.348,85.551 339.094,86.491 339.884 C 87.431 340.674,89.145 341.741,90.300 342.255 C 91.455 342.769,92.400 343.380,92.400 343.612 C 92.400 343.844,93.615 344.578,95.100 345.243 C 96.585 345.909,98.160 346.789,98.600 347.200 C 99.040 347.610,100.261 348.314,101.312 348.764 C 102.364 349.214,103.894 350.107,104.712 350.747 C 105.531 351.388,106.830 352.112,107.600 352.355 C 108.370 352.598,109.510 353.337,110.134 353.998 C 111.064 354.984,111.588 355.200,113.046 355.200 C 115.271 355.200,115.822 354.284,114.346 353.036 C 113.802 352.576,113.028 351.660,112.626 351.000 C 112.225 350.340,111.460 349.350,110.927 348.800 C 109.108 346.921,107.236 344.202,106.008 341.650 C 105.332 340.248,104.421 338.644,103.983 338.087 C 103.544 337.530,102.893 336.067,102.536 334.837 C 102.178 333.607,101.367 331.578,100.732 330.329 C 99.822 328.538,99.367 326.647,98.577 321.366 L 97.576 314.673 97.704 266.036 C 97.847 211.476,97.893 210.559,100.751 204.898 C 101.394 203.623,102.124 201.826,102.372 200.906 C 102.619 199.985,103.537 197.991,104.411 196.476 C 105.285 194.960,106.000 193.590,106.000 193.432 C 106.000 193.075,108.020 190.137,109.158 188.839 C 109.621 188.310,110.000 187.709,110.000 187.502 C 110.000 186.273,120.644 175.534,123.056 174.329 C 123.969 173.873,125.188 173.062,125.766 172.527 C 126.343 171.991,127.397 171.356,128.108 171.115 C 129.350 170.695,131.584 169.342,132.000 168.758 C 132.110 168.604,133.212 168.030,134.449 167.484 C 135.686 166.937,136.829 166.276,136.990 166.016 C 137.151 165.755,138.614 164.935,140.242 164.194 C 141.869 163.452,143.200 162.676,143.200 162.468 C 143.200 162.260,144.364 161.595,145.788 160.990 C 147.211 160.385,148.651 159.586,148.988 159.214 C 149.325 158.841,150.545 158.101,151.700 157.568 C 152.855 157.036,154.248 156.195,154.796 155.700 C 155.344 155.205,155.983 154.800,156.218 154.800 C 156.452 154.800,157.515 154.247,158.580 153.572 L 160.517 152.344 158.729 150.581 C 157.746 149.611,155.716 148.191,154.218 147.424 C 152.721 146.657,151.204 145.769,150.848 145.450 C 150.491 145.132,149.160 144.398,147.890 143.819 C 146.619 143.241,144.711 142.255,143.650 141.629 C 138.652 138.683,127.297 137.790,117.400 139.566 M265.200 138.677 C 255.997 140.223,251.059 141.998,246.064 145.554 C 245.334 146.074,243.717 147.011,242.469 147.638 C 236.501 150.633,235.901 152.443,240.183 154.539 C 241.377 155.124,242.465 155.782,242.601 156.002 C 242.737 156.222,243.912 156.930,245.213 157.575 C 246.514 158.220,247.935 159.081,248.371 159.487 C 248.808 159.894,249.848 160.465,250.682 160.755 C 251.517 161.046,252.830 161.777,253.600 162.380 C 254.370 162.982,255.898 163.872,256.995 164.357 C 258.092 164.842,259.352 165.578,259.795 165.993 C 260.238 166.407,261.442 167.106,262.471 167.546 C 263.500 167.986,265.275 168.989,266.416 169.773 C 267.556 170.558,268.715 171.200,268.990 171.200 C 269.265 171.200,270.190 171.758,271.045 172.440 C 271.900 173.122,273.230 174.003,274.000 174.398 C 276.048 175.450,285.735 185.139,286.799 187.200 C 287.083 187.750,287.802 188.830,288.396 189.600 C 288.989 190.370,290.013 191.990,290.669 193.200 C 291.326 194.410,292.330 196.140,292.901 197.044 C 293.472 197.948,294.149 199.478,294.406 200.444 C 294.663 201.410,295.389 203.190,296.019 204.400 C 296.847 205.988,297.477 208.326,298.283 212.800 L 299.400 219.000 299.400 267.600 L 299.400 316.200 298.267 322.400 C 297.420 327.035,296.789 329.316,295.767 331.441 C 295.015 333.005,294.400 334.508,294.400 334.782 C 294.400 335.481,293.194 338.012,292.305 339.181 C 291.894 339.720,291.033 341.295,290.392 342.681 C 289.751 344.066,289.079 345.200,288.899 345.200 C 288.719 345.200,288.235 345.785,287.822 346.500 C 287.409 347.215,286.425 348.563,285.635 349.495 C 281.048 354.911,280.957 355.200,283.852 355.200 C 285.236 355.200,285.844 354.978,286.551 354.215 C 287.053 353.673,288.332 352.858,289.393 352.403 C 290.453 351.948,291.908 351.061,292.626 350.431 C 293.344 349.800,294.622 349.064,295.466 348.794 C 296.310 348.524,297.450 347.892,298.000 347.390 C 298.550 346.888,300.215 345.931,301.700 345.263 C 303.185 344.596,304.400 343.881,304.400 343.674 C 304.400 343.468,305.277 342.921,306.349 342.460 C 307.422 341.999,309.068 340.979,310.008 340.193 C 310.948 339.408,312.006 338.606,312.358 338.412 C 313.671 337.689,318.950 332.294,321.607 328.961 C 323.918 326.061,328.160 319.328,328.733 317.649 C 328.986 316.907,329.699 315.467,330.317 314.449 C 330.934 313.432,331.661 311.610,331.933 310.400 C 332.204 309.190,333.005 306.760,333.713 305.000 L 335.000 301.800 335.000 247.000 L 335.000 192.200 333.300 187.374 C 332.365 184.720,331.600 182.254,331.600 181.894 C 331.600 181.534,330.970 180.196,330.201 178.920 C 329.432 177.644,328.802 176.419,328.801 176.197 C 328.800 175.616,326.843 172.014,325.740 170.562 C 325.223 169.881,324.800 169.150,324.800 168.937 C 324.800 168.724,324.260 168.032,323.600 167.400 C 322.940 166.768,322.400 166.084,322.400 165.881 C 322.400 164.067,308.085 150.800,306.129 150.800 C 305.938 150.800,304.840 150.180,303.689 149.422 C 302.538 148.664,300.562 147.526,299.298 146.893 C 298.034 146.261,296.280 145.366,295.400 144.905 C 294.520 144.444,293.350 143.882,292.800 143.656 C 292.250 143.430,290.270 142.616,288.400 141.847 C 282.740 139.520,270.299 137.820,265.200 138.677 M193.940 175.442 C 192.763 176.235,190.900 177.336,189.800 177.888 C 188.700 178.440,187.530 179.121,187.200 179.401 C 186.870 179.681,185.610 180.410,184.400 181.020 C 183.190 181.631,181.660 182.516,181.000 182.988 C 180.340 183.460,179.080 184.174,178.200 184.575 C 177.320 184.976,175.774 185.889,174.766 186.604 C 173.757 187.319,172.497 188.038,171.966 188.201 C 171.434 188.364,170.152 189.100,169.116 189.837 C 168.079 190.573,166.552 191.460,165.721 191.807 C 164.891 192.154,163.848 192.770,163.405 193.175 C 162.962 193.580,161.661 194.381,160.514 194.955 C 159.367 195.529,158.242 196.348,158.014 196.774 C 157.786 197.201,156.881 197.953,156.004 198.446 C 155.127 198.939,154.307 199.661,154.184 200.051 C 154.060 200.441,153.338 201.144,152.579 201.613 C 151.821 202.082,151.200 202.635,151.200 202.842 C 151.200 203.049,150.509 203.979,149.664 204.909 C 147.910 206.841,145.157 210.737,143.400 213.775 C 142.740 214.916,141.821 216.378,141.358 217.025 C 140.895 217.671,140.386 218.740,140.226 219.400 C 140.067 220.060,139.323 221.860,138.573 223.400 C 137.660 225.275,136.680 228.541,135.605 233.285 L 134.000 240.369 134.010 289.085 C 134.019 336.079,134.047 337.920,134.805 341.200 C 135.238 343.070,135.964 346.310,136.419 348.400 C 136.875 350.494,137.761 353.114,138.391 354.236 C 139.020 355.356,139.746 357.066,140.004 358.036 C 140.262 359.006,140.880 360.340,141.377 361.000 C 141.874 361.660,142.741 363.068,143.305 364.130 C 144.565 366.505,147.237 370.276,149.500 372.875 C 150.435 373.948,151.200 374.986,151.200 375.181 C 151.200 375.375,151.821 375.918,152.579 376.387 C 153.338 376.856,154.071 377.594,154.208 378.027 C 154.346 378.459,155.138 379.160,155.968 379.584 C 156.798 380.007,157.759 380.784,158.104 381.309 C 158.448 381.835,159.600 382.589,160.665 382.985 C 161.729 383.381,163.050 384.120,163.600 384.627 C 164.150 385.134,165.478 385.924,166.552 386.382 C 167.625 386.841,169.015 387.646,169.639 388.172 C 170.264 388.697,171.726 389.440,172.888 389.821 C 174.049 390.203,175.810 390.934,176.800 391.447 C 178.535 392.344,183.082 393.395,189.800 394.450 C 198.234 395.775,214.571 394.172,220.074 391.479 C 221.259 390.899,222.979 390.160,223.896 389.837 C 224.813 389.513,226.776 388.517,228.257 387.624 C 229.738 386.731,231.160 386.000,231.416 386.000 C 231.673 386.000,232.367 385.552,232.958 385.004 C 233.549 384.457,234.901 383.635,235.963 383.178 C 237.026 382.721,238.494 381.729,239.226 380.973 C 239.958 380.218,240.747 379.597,240.978 379.593 C 241.210 379.589,242.480 378.395,243.800 376.941 C 245.120 375.486,246.663 373.824,247.229 373.248 C 247.795 372.672,248.604 371.660,249.026 371.000 C 249.898 369.637,250.030 369.455,251.334 367.800 C 251.854 367.140,252.775 365.700,253.380 364.600 C 253.985 363.500,254.717 362.330,255.008 362.000 C 255.299 361.670,255.926 360.410,256.401 359.200 C 256.877 357.990,257.881 355.751,258.633 354.224 C 259.385 352.697,260.000 351.063,260.000 350.592 C 260.000 350.121,260.630 347.438,261.400 344.628 L 262.800 339.520 262.800 289.005 L 262.800 238.489 261.836 235.145 C 261.306 233.305,260.551 230.270,260.159 228.400 C 259.766 226.530,259.041 224.370,258.546 223.600 C 258.052 222.830,257.254 221.120,256.773 219.800 C 256.292 218.480,255.506 216.860,255.026 216.200 C 254.545 215.540,253.740 214.194,253.235 213.209 C 252.731 212.224,251.884 210.874,251.353 210.209 C 250.822 209.544,250.235 208.809,250.048 208.575 C 249.861 208.341,249.475 207.714,249.190 207.181 C 248.642 206.157,247.936 205.377,243.774 201.200 C 240.261 197.674,238.137 195.911,236.017 194.765 C 235.037 194.234,233.901 193.474,233.492 193.075 C 233.084 192.676,231.996 192.017,231.075 191.610 C 230.154 191.203,228.416 190.224,227.213 189.435 C 226.011 188.646,224.892 188.000,224.727 188.000 C 224.562 188.000,223.313 187.280,221.951 186.400 C 220.590 185.520,219.322 184.800,219.134 184.800 C 218.945 184.800,217.355 183.900,215.600 182.800 C 213.845 181.700,212.251 180.800,212.058 180.800 C 211.866 180.800,211.279 180.464,210.754 180.053 C 210.229 179.643,208.810 178.795,207.600 178.169 C 206.390 177.543,204.337 176.349,203.038 175.516 C 199.711 173.381,197.031 173.359,193.940 175.442 " stroke="none" fill="#f46625" fill-rule="evenodd"></path><path id="path1" d="M82.814 10.461 L 81.880 12.123 82.126 26.561 C 82.391 42.074,82.758 46.948,84.004 51.501 C 84.441 53.097,85.166 56.697,85.614 59.501 C 86.063 62.306,86.793 65.351,87.236 66.268 C 87.678 67.186,88.488 69.609,89.035 71.654 C 89.583 73.698,90.294 75.662,90.616 76.018 C 90.938 76.374,91.652 77.990,92.203 79.609 C 92.754 81.228,93.534 82.924,93.936 83.377 C 94.339 83.829,95.082 85.190,95.588 86.400 C 96.094 87.610,96.818 88.870,97.197 89.200 C 97.575 89.530,98.295 90.610,98.795 91.600 C 99.296 92.590,100.312 94.076,101.053 94.901 C 101.794 95.727,102.400 96.568,102.400 96.769 C 102.400 96.971,103.138 97.916,104.039 98.868 C 104.941 99.821,106.336 101.293,107.139 102.139 C 108.589 103.666,114.314 108.782,116.953 110.908 C 117.710 111.518,119.200 112.496,120.264 113.083 C 121.329 113.669,122.740 114.551,123.400 115.043 C 124.060 115.535,125.590 116.325,126.800 116.798 C 128.010 117.272,129.360 117.992,129.800 118.398 C 130.240 118.803,131.770 119.433,133.200 119.798 C 134.630 120.162,136.610 120.910,137.600 121.459 C 138.768 122.108,141.271 122.805,144.729 123.444 C 147.660 123.986,150.720 124.690,151.529 125.008 C 155.567 126.596,179.250 127.091,180.585 125.616 C 181.538 124.563,180.322 122.439,176.519 118.518 C 175.023 116.976,171.460 113.235,168.600 110.204 C 165.740 107.173,162.770 104.033,162.000 103.227 C 161.230 102.420,158.350 99.361,155.600 96.429 C 152.850 93.497,149.770 90.261,148.755 89.239 C 147.741 88.216,146.784 86.979,146.628 86.490 C 146.473 86.000,146.092 85.600,145.782 85.600 C 144.652 85.600,143.732 83.585,144.580 82.965 C 145.316 82.427,147.600 83.492,147.600 84.373 C 147.600 84.548,148.429 85.008,149.442 85.395 C 150.455 85.782,151.876 86.618,152.599 87.252 C 153.322 87.887,154.753 88.778,155.780 89.232 C 156.807 89.687,157.750 90.327,157.876 90.655 C 158.002 90.982,159.233 91.784,160.611 92.435 C 161.990 93.086,163.349 93.898,163.632 94.239 C 163.915 94.580,164.875 95.230,165.765 95.684 C 166.655 96.138,168.017 97.017,168.792 97.637 C 169.566 98.257,170.844 99.032,171.632 99.359 C 172.419 99.686,173.307 100.247,173.605 100.606 C 173.903 100.965,174.808 101.596,175.617 102.009 C 177.264 102.849,182.935 106.531,185.439 108.386 C 186.341 109.054,187.254 109.600,187.468 109.600 C 187.682 109.600,189.004 110.398,190.406 111.373 C 194.211 114.021,194.811 113.486,196.011 106.376 C 197.960 94.825,197.931 92.954,195.612 80.038 C 194.750 75.241,194.071 72.567,193.426 71.438 C 192.911 70.537,192.175 68.810,191.789 67.600 C 191.403 66.390,190.747 64.914,190.331 64.320 C 189.915 63.726,189.132 62.274,188.592 61.094 C 188.051 59.914,187.157 58.523,186.605 58.004 C 186.052 57.485,185.600 56.851,185.600 56.595 C 185.600 54.387,167.972 36.800,165.758 36.800 C 165.622 36.800,164.945 36.337,164.255 35.770 C 162.583 34.398,156.306 30.403,155.800 30.389 C 155.580 30.382,154.324 29.662,153.009 28.789 C 151.693 27.915,150.347 27.200,150.016 27.200 C 149.686 27.200,148.422 26.592,147.208 25.849 C 145.994 25.105,143.945 24.194,142.655 23.824 C 141.365 23.454,139.655 22.728,138.855 22.211 C 138.055 21.694,135.964 20.884,134.209 20.411 C 132.453 19.939,130.445 19.199,129.746 18.767 C 129.047 18.335,126.724 17.610,124.584 17.156 C 122.444 16.702,120.013 15.977,119.183 15.544 C 118.352 15.111,115.181 14.310,112.136 13.764 C 109.091 13.217,106.060 12.525,105.400 12.225 C 103.704 11.454,100.629 10.890,94.394 10.207 C 91.421 9.882,88.021 9.432,86.840 9.208 C 83.811 8.633,83.847 8.622,82.814 10.461 M253.438 61.673 C 251.240 61.898,248.712 62.483,246.838 63.198 C 245.167 63.837,242.907 64.579,241.816 64.848 C 240.725 65.117,238.637 66.026,237.176 66.869 C 235.715 67.711,234.382 68.400,234.213 68.400 C 232.183 68.400,218.400 81.923,218.400 83.914 C 218.400 84.147,217.976 84.847,217.459 85.469 C 216.941 86.091,216.195 87.320,215.801 88.200 C 215.407 89.080,214.391 91.260,213.542 93.045 C 212.694 94.830,212.000 96.583,212.000 96.940 C 212.000 97.298,211.480 99.258,210.843 101.295 C 208.537 108.685,208.273 111.067,209.603 112.495 L 210.405 113.357 212.103 112.467 C 213.036 111.977,215.150 110.687,216.800 109.598 C 218.450 108.510,220.970 106.947,222.400 106.125 C 223.830 105.303,225.360 104.288,225.800 103.871 C 226.240 103.454,227.320 102.766,228.200 102.342 C 229.080 101.919,230.675 100.948,231.745 100.186 C 234.428 98.274,236.000 98.278,236.000 100.195 C 236.000 101.387,235.768 101.737,234.400 102.600 C 233.520 103.156,232.800 103.803,232.800 104.040 C 232.800 104.276,231.207 106.041,229.261 107.962 C 227.314 109.882,225.559 111.723,225.361 112.051 C 225.162 112.380,224.628 112.907,224.172 113.224 C 223.717 113.541,222.211 115.060,220.826 116.600 C 219.440 118.140,217.788 119.733,217.153 120.139 C 215.786 121.016,215.686 122.081,216.802 123.910 C 217.788 125.528,218.317 125.731,224.906 127.022 C 233.520 128.710,235.589 128.927,238.648 128.466 C 244.632 127.563,251.414 125.934,252.200 125.210 C 252.640 124.804,254.163 124.003,255.585 123.430 C 257.007 122.856,258.627 121.961,259.185 121.439 C 259.743 120.918,260.757 120.210,261.438 119.867 C 262.120 119.524,263.308 118.648,264.079 117.922 C 264.851 117.195,266.580 115.610,267.922 114.400 C 269.264 113.190,270.570 111.815,270.825 111.344 C 271.080 110.873,271.715 110.259,272.237 109.980 C 272.760 109.701,273.296 109.129,273.429 108.710 C 273.562 108.290,274.465 107.053,275.435 105.960 C 276.406 104.867,277.200 103.801,277.200 103.590 C 277.200 103.379,277.725 102.739,278.366 102.167 C 279.008 101.596,279.895 100.284,280.339 99.253 C 280.782 98.222,281.698 96.684,282.373 95.834 C 283.048 94.985,283.601 94.090,283.603 93.845 C 283.604 93.600,284.414 92.145,285.403 90.612 C 286.391 89.079,287.200 87.601,287.200 87.328 C 287.200 87.055,287.949 85.340,288.864 83.516 C 289.779 81.692,290.653 79.840,290.805 79.400 C 290.958 78.960,291.741 77.160,292.546 75.400 C 295.437 69.080,295.648 65.743,293.211 64.855 C 284.512 61.684,266.999 60.283,253.438 61.673 M238.400 97.000 C 239.017 97.744,238.299 98.800,237.175 98.800 C 236.087 98.800,235.832 98.049,236.623 97.175 C 237.466 96.243,237.748 96.215,238.400 97.000 " stroke="none" fill="#75bd46" fill-rule="evenodd"></path><path id="path2" d="M0.000 200.000 L 0.000 400.000 200.000 400.000 L 400.000 400.000 400.000 200.000 L 400.000 0.000 200.000 0.000 L 0.000 0.000 0.000 200.000 M86.840 9.208 C 88.021 9.432,91.421 9.882,94.394 10.207 C 100.629 10.890,103.704 11.454,105.400 12.225 C 106.060 12.525,109.091 13.217,112.136 13.764 C 115.181 14.310,118.352 15.111,119.183 15.544 C 120.013 15.977,122.444 16.702,124.584 17.156 C 126.724 17.610,129.047 18.335,129.746 18.767 C 130.445 19.199,132.453 19.939,134.209 20.411 C 135.964 20.884,138.055 21.694,138.855 22.211 C 139.655 22.728,141.365 23.454,142.655 23.824 C 143.945 24.194,145.994 25.105,147.208 25.849 C 148.422 26.592,149.686 27.200,150.016 27.200 C 150.347 27.200,151.693 27.915,153.009 28.789 C 154.324 29.662,155.580 30.382,155.800 30.389 C 156.306 30.403,162.583 34.398,164.255 35.770 C 164.945 36.337,165.622 36.800,165.758 36.800 C 167.972 36.800,185.600 54.387,185.600 56.595 C 185.600 56.851,186.052 57.485,186.605 58.004 C 187.157 58.523,188.051 59.914,188.592 61.094 C 189.132 62.274,189.915 63.726,190.331 64.320 C 190.747 64.914,191.403 66.390,191.789 67.600 C 192.175 68.810,192.911 70.537,193.426 71.438 C 195.403 74.901,197.890 92.005,197.253 97.764 C 195.617 112.546,194.703 114.364,190.406 111.373 C 189.004 110.398,187.682 109.600,187.468 109.600 C 187.254 109.600,186.341 109.054,185.439 108.386 C 182.935 106.531,177.264 102.849,175.617 102.009 C 174.808 101.596,173.903 100.965,173.605 100.606 C 173.307 100.247,172.419 99.686,171.632 99.359 C 170.844 99.032,169.566 98.257,168.792 97.637 C 168.017 97.017,166.655 96.138,165.765 95.684 C 164.875 95.230,163.915 94.580,163.632 94.239 C 163.349 93.898,161.990 93.086,160.611 92.435 C 159.233 91.784,158.002 90.982,157.876 90.655 C 157.750 90.327,156.807 89.687,155.780 89.232 C 154.753 88.778,153.322 87.887,152.599 87.252 C 151.876 86.618,150.455 85.782,149.442 85.395 C 148.429 85.008,147.600 84.548,147.600 84.373 C 147.600 83.492,145.316 82.427,144.580 82.965 C 143.732 83.585,144.652 85.600,145.782 85.600 C 146.092 85.600,146.473 86.000,146.628 86.490 C 146.784 86.979,147.741 88.216,148.755 89.239 C 149.770 90.261,152.850 93.497,155.600 96.429 C 158.350 99.361,161.230 102.420,162.000 103.227 C 162.770 104.033,165.740 107.173,168.600 110.204 C 171.460 113.235,175.023 116.976,176.519 118.518 C 180.322 122.439,181.538 124.563,180.585 125.616 C 179.250 127.091,155.567 126.596,151.529 125.008 C 150.720 124.690,147.660 123.986,144.729 123.444 C 141.271 122.805,138.768 122.108,137.600 121.459 C 136.610 120.910,134.630 120.162,133.200 119.798 C 131.770 119.433,130.240 118.803,129.800 118.398 C 129.360 117.992,128.010 117.272,126.800 116.798 C 125.590 116.325,124.060 115.535,123.400 115.043 C 122.740 114.551,121.329 113.669,120.264 113.083 C 119.200 112.496,117.710 111.518,116.953 110.908 C 114.314 108.782,108.589 103.666,107.139 102.139 C 106.336 101.293,104.941 99.821,104.039 98.868 C 103.138 97.916,102.400 96.971,102.400 96.769 C 102.400 96.568,101.794 95.727,101.053 94.901 C 100.312 94.076,99.296 92.590,98.795 91.600 C 98.295 90.610,97.575 89.530,97.197 89.200 C 96.818 88.870,96.094 87.610,95.588 86.400 C 95.082 85.190,94.339 83.829,93.936 83.377 C 93.534 82.924,92.754 81.228,92.203 79.609 C 91.652 77.990,90.938 76.374,90.616 76.018 C 90.294 75.662,89.583 73.698,89.035 71.654 C 88.488 69.609,87.678 67.186,87.236 66.268 C 86.793 65.351,86.063 62.306,85.614 59.501 C 85.166 56.697,84.441 53.097,84.004 51.501 C 82.758 46.948,82.391 42.074,82.126 26.561 L 81.880 12.123 82.814 10.461 C 83.847 8.622,83.811 8.633,86.840 9.208 M277.800 61.608 C 281.984 61.957,289.749 63.593,293.211 64.855 C 295.648 65.743,295.437 69.080,292.546 75.400 C 291.741 77.160,290.958 78.960,290.805 79.400 C 290.653 79.840,289.779 81.692,288.864 83.516 C 287.949 85.340,287.200 87.055,287.200 87.328 C 287.200 87.601,286.391 89.079,285.403 90.612 C 284.414 92.145,283.604 93.600,283.603 93.845 C 283.601 94.090,283.048 94.985,282.373 95.834 C 281.698 96.684,280.782 98.222,280.339 99.253 C 279.895 100.284,279.008 101.596,278.366 102.167 C 277.725 102.739,277.200 103.379,277.200 103.590 C 277.200 103.801,276.406 104.867,275.435 105.960 C 274.465 107.053,273.562 108.290,273.429 108.710 C 273.296 109.129,272.760 109.701,272.237 109.980 C 271.715 110.259,271.080 110.873,270.825 111.344 C 270.570 111.815,269.264 113.190,267.922 114.400 C 266.580 115.610,264.851 117.195,264.079 117.922 C 263.308 118.648,262.120 119.524,261.438 119.867 C 260.757 120.210,259.743 120.918,259.185 121.439 C 258.627 121.961,257.007 122.856,255.585 123.430 C 254.163 124.003,252.640 124.804,252.200 125.210 C 251.414 125.934,244.632 127.563,238.648 128.466 C 235.589 128.927,233.520 128.710,224.906 127.022 C 218.317 125.731,217.788 125.528,216.802 123.910 C 215.686 122.081,215.786 121.016,217.153 120.139 C 217.788 119.733,219.440 118.140,220.826 116.600 C 222.211 115.060,223.717 113.541,224.172 113.224 C 224.628 112.907,225.162 112.380,225.361 112.051 C 225.559 111.723,227.314 109.882,229.261 107.962 C 231.207 106.041,232.800 104.276,232.800 104.040 C 232.800 103.803,233.520 103.156,234.400 102.600 C 235.768 101.737,236.000 101.387,236.000 100.195 C 236.000 98.278,234.428 98.274,231.745 100.186 C 230.675 100.948,229.080 101.919,228.200 102.342 C 227.320 102.766,226.240 103.454,225.800 103.871 C 225.360 104.288,223.830 105.303,222.400 106.125 C 220.970 106.947,218.450 108.510,216.800 109.598 C 215.150 110.687,213.036 111.977,212.103 112.467 L 210.405 113.357 209.603 112.495 C 208.273 111.067,208.537 108.685,210.843 101.295 C 211.480 99.258,212.000 97.298,212.000 96.940 C 212.000 96.583,212.694 94.830,213.542 93.045 C 214.391 91.260,215.407 89.080,215.801 88.200 C 216.195 87.320,216.941 86.091,217.459 85.469 C 217.976 84.847,218.400 84.147,218.400 83.914 C 218.400 81.923,232.183 68.400,234.213 68.400 C 234.382 68.400,235.715 67.711,237.176 66.869 C 238.637 66.026,240.725 65.117,241.816 64.848 C 242.907 64.579,245.167 63.837,246.838 63.198 C 251.687 61.346,265.897 60.616,277.800 61.608 M236.623 97.175 C 235.832 98.049,236.087 98.800,237.175 98.800 C 238.299 98.800,239.017 97.744,238.400 97.000 C 237.748 96.215,237.466 96.243,236.623 97.175 M136.021 139.446 C 140.281 140.227,142.207 140.779,143.650 141.629 C 144.711 142.255,146.619 143.241,147.890 143.819 C 149.160 144.398,150.491 145.132,150.848 145.450 C 151.204 145.769,152.721 146.657,154.218 147.424 C 155.716 148.191,157.746 149.611,158.729 150.581 L 160.517 152.344 158.580 153.572 C 157.515 154.247,156.452 154.800,156.218 154.800 C 155.983 154.800,155.344 155.205,154.796 155.700 C 154.248 156.195,152.855 157.036,151.700 157.568 C 150.545 158.101,149.325 158.841,148.988 159.214 C 148.651 159.586,147.211 160.385,145.788 160.990 C 144.364 161.595,143.200 162.260,143.200 162.468 C 143.200 162.676,141.869 163.452,140.242 164.194 C 138.614 164.935,137.151 165.755,136.990 166.016 C 136.829 166.276,135.686 166.937,134.449 167.484 C 133.212 168.030,132.110 168.604,132.000 168.758 C 131.584 169.342,129.350 170.695,128.108 171.115 C 127.397 171.356,126.343 171.991,125.766 172.527 C 125.188 173.062,123.969 173.873,123.056 174.329 C 120.644 175.534,110.000 186.273,110.000 187.502 C 110.000 187.709,109.621 188.310,109.158 188.839 C 108.020 190.137,106.000 193.075,106.000 193.432 C 106.000 193.590,105.285 194.960,104.411 196.476 C 103.537 197.991,102.619 199.985,102.372 200.906 C 102.124 201.826,101.394 203.623,100.751 204.898 C 97.893 210.559,97.847 211.476,97.704 266.036 L 97.576 314.673 98.577 321.366 C 99.367 326.647,99.822 328.538,100.732 330.329 C 101.367 331.578,102.178 333.607,102.536 334.837 C 102.893 336.067,103.544 337.530,103.983 338.087 C 104.421 338.644,105.332 340.248,106.008 341.650 C 107.236 344.202,109.108 346.921,110.927 348.800 C 111.460 349.350,112.225 350.340,112.626 351.000 C 113.028 351.660,113.802 352.576,114.346 353.036 C 115.822 354.284,115.271 355.200,113.046 355.200 C 111.588 355.200,111.064 354.984,110.134 353.998 C 109.510 353.337,108.370 352.598,107.600 352.355 C 106.830 352.112,105.531 351.388,104.712 350.747 C 103.894 350.107,102.364 349.214,101.312 348.764 C 100.261 348.314,99.040 347.610,98.600 347.200 C 98.160 346.789,96.585 345.909,95.100 345.243 C 93.615 344.578,92.400 343.844,92.400 343.612 C 92.400 343.380,91.455 342.769,90.300 342.255 C 89.145 341.741,87.431 340.674,86.491 339.884 C 85.551 339.094,84.471 338.348,84.091 338.226 C 83.711 338.104,83.040 337.463,82.600 336.800 C 82.160 336.137,81.501 335.499,81.136 335.382 C 80.770 335.265,80.024 334.583,79.478 333.867 C 78.932 333.151,77.881 331.918,77.143 331.126 C 75.367 329.224,73.215 326.269,71.808 323.800 C 71.180 322.700,70.339 321.430,69.937 320.978 C 69.536 320.526,68.762 319.086,68.218 317.778 C 67.673 316.470,66.682 314.340,66.014 313.044 C 65.346 311.748,64.800 310.338,64.800 309.911 C 64.800 309.484,64.125 307.214,63.300 304.867 L 61.800 300.600 61.800 246.600 L 61.800 192.600 63.111 189.000 C 63.832 187.020,64.608 184.590,64.835 183.600 C 65.062 182.610,65.957 180.408,66.824 178.706 C 67.691 177.005,68.400 175.402,68.400 175.144 C 68.400 174.886,68.822 174.119,69.337 173.438 C 69.853 172.757,70.762 171.322,71.358 170.248 C 72.511 168.173,73.380 167.032,77.754 161.858 C 81.692 157.198,85.849 153.718,90.741 150.985 C 91.544 150.537,93.188 149.502,94.395 148.685 C 95.602 147.868,96.829 147.200,97.123 147.200 C 97.416 147.200,98.440 146.660,99.399 146.001 C 100.358 145.341,102.584 144.270,104.345 143.620 C 106.107 142.971,107.875 142.251,108.274 142.020 C 113.483 139.010,126.878 137.768,136.021 139.446 M278.864 139.425 C 283.203 140.149,285.996 140.859,288.400 141.847 C 290.270 142.616,292.250 143.430,292.800 143.656 C 293.350 143.882,294.520 144.444,295.400 144.905 C 296.280 145.366,298.034 146.261,299.298 146.893 C 300.562 147.526,302.538 148.664,303.689 149.422 C 304.840 150.180,305.938 150.800,306.129 150.800 C 308.085 150.800,322.400 164.067,322.400 165.881 C 322.400 166.084,322.940 166.768,323.600 167.400 C 324.260 168.032,324.800 168.724,324.800 168.937 C 324.800 169.150,325.223 169.881,325.740 170.562 C 326.843 172.014,328.800 175.616,328.801 176.197 C 328.802 176.419,329.432 177.644,330.201 178.920 C 330.970 180.196,331.600 181.534,331.600 181.894 C 331.600 182.254,332.365 184.720,333.300 187.374 L 335.000 192.200 335.000 247.000 L 335.000 301.800 333.713 305.000 C 333.005 306.760,332.204 309.190,331.933 310.400 C 331.661 311.610,330.934 313.432,330.317 314.449 C 329.699 315.467,328.986 316.907,328.733 317.649 C 328.160 319.328,323.918 326.061,321.607 328.961 C 318.950 332.294,313.671 337.689,312.358 338.412 C 312.006 338.606,310.948 339.408,310.008 340.193 C 309.068 340.979,307.422 341.999,306.349 342.460 C 305.277 342.921,304.400 343.468,304.400 343.674 C 304.400 343.881,303.185 344.596,301.700 345.263 C 300.215 345.931,298.550 346.888,298.000 347.390 C 297.450 347.892,296.310 348.524,295.466 348.794 C 294.622 349.064,293.344 349.800,292.626 350.431 C 291.908 351.061,290.453 351.948,289.393 352.403 C 288.332 352.858,287.053 353.673,286.551 354.215 C 285.844 354.978,285.236 355.200,283.852 355.200 C 280.957 355.200,281.048 354.911,285.635 349.495 C 286.425 348.563,287.409 347.215,287.822 346.500 C 288.235 345.785,288.719 345.200,288.899 345.200 C 289.079 345.200,289.751 344.066,290.392 342.681 C 291.033 341.295,291.894 339.720,292.305 339.181 C 293.194 338.012,294.400 335.481,294.400 334.782 C 294.400 334.508,295.015 333.005,295.767 331.441 C 296.789 329.316,297.420 327.035,298.267 322.400 L 299.400 316.200 299.400 267.600 L 299.400 219.000 298.283 212.800 C 297.477 208.326,296.847 205.988,296.019 204.400 C 295.389 203.190,294.663 201.410,294.406 200.444 C 294.149 199.478,293.472 197.948,292.901 197.044 C 292.330 196.140,291.326 194.410,290.669 193.200 C 290.013 191.990,288.989 190.370,288.396 189.600 C 287.802 188.830,287.083 187.750,286.799 187.200 C 285.735 185.139,276.048 175.450,274.000 174.398 C 273.230 174.003,271.900 173.122,271.045 172.440 C 270.190 171.758,269.265 171.200,268.990 171.200 C 268.715 171.200,267.556 170.558,266.416 169.773 C 265.275 168.989,263.500 167.986,262.471 167.546 C 261.442 167.106,260.238 166.407,259.795 165.993 C 259.352 165.578,258.092 164.842,256.995 164.357 C 255.898 163.872,254.370 162.982,253.600 162.380 C 252.830 161.777,251.517 161.046,250.682 160.755 C 249.848 160.465,248.808 159.894,248.371 159.487 C 247.935 159.081,246.514 158.220,245.213 157.575 C 243.912 156.930,242.737 156.222,242.601 156.002 C 242.465 155.782,241.377 155.124,240.183 154.539 C 235.901 152.443,236.501 150.633,242.469 147.638 C 243.717 147.011,245.334 146.074,246.064 145.554 C 251.059 141.998,255.997 140.223,265.200 138.677 C 268.016 138.204,273.277 138.492,278.864 139.425 M203.038 175.516 C 204.337 176.349,206.390 177.543,207.600 178.169 C 208.810 178.795,210.229 179.643,210.754 180.053 C 211.279 180.464,211.866 180.800,212.058 180.800 C 212.251 180.800,213.845 181.700,215.600 182.800 C 217.355 183.900,218.945 184.800,219.134 184.800 C 219.322 184.800,220.590 185.520,221.951 186.400 C 223.313 187.280,224.562 188.000,224.727 188.000 C 224.892 188.000,226.011 188.646,227.213 189.435 C 228.416 190.224,230.154 191.203,231.075 191.610 C 231.996 192.017,233.084 192.676,233.492 193.075 C 233.901 193.474,235.037 194.234,236.017 194.765 C 238.137 195.911,240.261 197.674,243.774 201.200 C 247.936 205.377,248.642 206.157,249.190 207.181 C 249.475 207.714,249.861 208.341,250.048 208.575 C 250.235 208.809,250.822 209.544,251.353 210.209 C 251.884 210.874,252.731 212.224,253.235 213.209 C 253.740 214.194,254.545 215.540,255.026 216.200 C 255.506 216.860,256.292 218.480,256.773 219.800 C 257.254 221.120,258.052 222.830,258.546 223.600 C 259.041 224.370,259.766 226.530,260.159 228.400 C 260.551 230.270,261.306 233.305,261.836 235.145 L 262.800 238.489 262.800 289.005 L 262.800 339.520 261.400 344.628 C 260.630 347.438,260.000 350.121,260.000 350.592 C 260.000 351.063,259.385 352.697,258.633 354.224 C 257.881 355.751,256.877 357.990,256.401 359.200 C 255.926 360.410,255.299 361.670,255.008 362.000 C 254.717 362.330,253.985 363.500,253.380 364.600 C 252.775 365.700,251.854 367.140,251.334 367.800 C 250.030 369.455,249.898 369.637,249.026 371.000 C 248.604 371.660,247.795 372.672,247.229 373.248 C 246.663 373.824,245.120 375.486,243.800 376.941 C 242.480 378.395,241.210 379.589,240.978 379.593 C 240.747 379.597,239.958 380.218,239.226 380.973 C 238.494 381.729,237.026 382.721,235.963 383.178 C 234.901 383.635,233.549 384.457,232.958 385.004 C 232.367 385.552,231.673 386.000,231.416 386.000 C 231.160 386.000,229.738 386.731,228.257 387.624 C 226.776 388.517,224.813 389.513,223.896 389.837 C 222.979 390.160,221.259 390.899,220.074 391.479 C 214.571 394.172,198.234 395.775,189.800 394.450 C 183.082 393.395,178.535 392.344,176.800 391.447 C 175.810 390.934,174.049 390.203,172.888 389.821 C 171.726 389.440,170.264 388.697,169.639 388.172 C 169.015 387.646,167.625 386.841,166.552 386.382 C 165.478 385.924,164.150 385.134,163.600 384.627 C 163.050 384.120,161.729 383.381,160.665 382.985 C 159.600 382.589,158.448 381.835,158.104 381.309 C 157.759 380.784,156.798 380.007,155.968 379.584 C 155.138 379.160,154.346 378.459,154.208 378.027 C 154.071 377.594,153.338 376.856,152.579 376.387 C 151.821 375.918,151.200 375.375,151.200 375.181 C 151.200 374.986,150.435 373.948,149.500 372.875 C 147.237 370.276,144.565 366.505,143.305 364.130 C 142.741 363.068,141.874 361.660,141.377 361.000 C 140.880 360.340,140.262 359.006,140.004 358.036 C 139.746 357.066,139.020 355.356,138.391 354.236 C 137.761 353.114,136.875 350.494,136.419 348.400 C 135.964 346.310,135.238 343.070,134.805 341.200 C 134.047 337.920,134.019 336.079,134.010 289.085 L 134.000 240.369 135.605 233.285 C 136.680 228.541,137.660 225.275,138.573 223.400 C 139.323 221.860,140.067 220.060,140.226 219.400 C 140.386 218.740,140.895 217.671,141.358 217.025 C 141.821 216.378,142.740 214.916,143.400 213.775 C 145.157 210.737,147.910 206.841,149.664 204.909 C 150.509 203.979,151.200 203.049,151.200 202.842 C 151.200 202.635,151.821 202.082,152.579 201.613 C 153.338 201.144,154.060 200.441,154.184 200.051 C 154.307 199.661,155.127 198.939,156.004 198.446 C 156.881 197.953,157.786 197.201,158.014 196.774 C 158.242 196.348,159.367 195.529,160.514 194.955 C 161.661 194.381,162.962 193.580,163.405 193.175 C 163.848 192.770,164.891 192.154,165.721 191.807 C 166.552 191.460,168.079 190.573,169.116 189.837 C 170.152 189.100,171.434 188.364,171.966 188.201 C 172.497 188.038,173.757 187.319,174.766 186.604 C 175.774 185.889,177.320 184.976,178.200 184.575 C 179.080 184.174,180.340 183.460,181.000 182.988 C 181.660 182.516,183.190 181.631,184.400 181.020 C 185.610 180.410,186.870 179.681,187.200 179.401 C 187.530 179.121,188.700 178.440,189.800 177.888 C 190.900 177.336,192.763 176.235,193.940 175.442 C 197.031 173.359,199.711 173.381,203.038 175.516 " stroke="none" fill="#fbfbfb" fill-rule="evenodd"></path></g></svg>